<svg width="191" height="42" viewBox="0 0 191 42" fill="none" xmlns="http://www.w3.org/2000/svg">
<g clip-path="url(#clip0)">
<path d="M20.7602 0H20.7599C9.29452 0 0 9.40194 0 20.9998V21.0002C0 32.5981 9.29452 42 20.7599 42H20.7602C32.2256 42 41.5201 32.5981 41.5201 21.0002V20.9998C41.5201 9.40194 32.2256 0 20.7602 0Z" fill="#4073FF"/>
<path d="M54.167 29.6772V15.388H58.4049V13.0063H51.5773V29.6785L54.167 29.6772Z" fill="#333333"/>
<path d="M62.5231 16.8406C62.5231 15.6498 63.041 15.1972 63.8658 15.1972C64.6905 15.1972 65.2085 15.6495 65.2085 16.8406V25.8426C65.2085 27.0334 64.6905 27.486 63.8658 27.486C63.041 27.486 62.5231 27.0334 62.5231 25.8426V16.8406ZM59.9333 25.6759C59.9333 28.3431 61.3223 29.8673 63.865 29.8673C66.4078 29.8673 67.7965 28.3431 67.7965 25.6759V17.0073C67.7965 14.3398 66.4074 12.8159 63.865 12.8159C61.3226 12.8159 59.9333 14.3401 59.9333 17.0073V25.6759Z" fill="#333333"/>
<path d="M73.2841 13.0063H69.4702V29.6785H72.0599V23.4137H73.2841C75.8739 23.4137 77.1444 21.9611 77.1444 19.2936V17.1265C77.1451 14.459 75.8739 13.0063 73.2841 13.0063ZM73.2841 15.388C74.1082 15.388 74.5554 15.769 74.5554 16.9598V19.4603C74.5554 20.6511 74.1079 21.0321 73.2841 21.0321H72.0599V15.388H73.2841Z" fill="#333333"/>
<path d="M80.7221 16.8406C80.7221 15.6498 81.24 15.1972 82.0648 15.1972C82.8895 15.1972 83.4075 15.6495 83.4075 16.8406V25.8426C83.4075 27.0334 82.8895 27.486 82.0648 27.486C81.24 27.486 80.7221 27.0334 80.7221 25.8426V16.8406ZM78.1322 25.6759C78.1322 28.3431 79.5214 29.8673 82.0641 29.8673C84.6069 29.8673 85.9955 28.3431 85.9955 25.6759V17.0073C85.9955 14.3398 84.6065 12.8159 82.0641 12.8159C79.5217 12.8159 78.1322 14.3401 78.1322 17.0073V25.6759Z" fill="#333333"/>
<path d="M97.722 31.9155V27.3431H96.5917V13.0063H89.3411L88.7527 25.176C88.7054 26.1526 88.564 26.7719 88.1169 27.3431H87.1046V31.9155H89.6222V29.6768H95.1564V31.9155H97.722ZM91.7661 15.388H93.9557V27.3434H90.5655C90.9891 26.9383 91.2243 26.3906 91.2952 25.1285L91.7661 15.388Z" fill="#333333"/>
<path d="M112.366 29.6772H115.026L111.424 20.4368L115.026 13.0063H112.435L109.044 20.2701V13.0063H106.455V29.6785H109.044V24.5567L109.845 23.0328L112.366 29.6772Z" fill="#333333"/>
<path d="M120.112 13.0063H116.203V29.6785H120.276C122.866 29.6785 124.208 28.2972 124.208 25.7251V24.3669C124.208 22.6046 123.667 21.3424 122.278 20.7944C123.431 20.2467 123.949 19.1513 123.949 17.4365V16.8413C123.949 14.2692 122.795 13.007 120.111 13.007L120.112 13.0063ZM119.947 22.1744C121.124 22.1744 121.618 22.6497 121.618 24.1988V25.6514C121.618 26.8898 121.148 27.2949 120.275 27.2949H118.792V22.1754L119.947 22.1744ZM120.041 15.387C120.959 15.387 121.359 15.9109 121.359 17.1017V18.0304C121.359 19.3638 120.77 19.7927 119.805 19.7927H118.793V15.388L120.041 15.387Z" fill="#333333"/>
<path d="M131.506 13.0063H127.716L125.079 29.6785H127.457L127.904 26.6541H131.083L131.53 29.6785H134.144L131.506 13.0063ZM129.482 15.9605L130.73 24.391H128.234L129.482 15.9605Z" fill="#333333"/>
<path d="M145.397 31.9155V27.3431H144.267V13.0063H137.016L136.428 25.176C136.38 26.1526 136.239 26.7719 135.792 27.3431H134.779V31.9155H137.297V29.6768H142.829V31.9155H145.397ZM139.44 15.3877H141.63V27.3431H138.239C138.663 26.938 138.898 26.3903 138.969 25.1281L139.44 15.3877Z" fill="#333333"/>
<path d="M150.647 13.0063H146.833V29.6785H149.423V23.4137H150.647C153.237 23.4137 154.507 21.9611 154.507 19.2936V17.1265C154.508 14.459 153.237 13.0063 150.647 13.0063ZM150.647 15.388C151.471 15.388 151.918 15.769 151.918 16.9598V19.4603C151.918 20.6511 151.471 21.0321 150.647 21.0321H149.423V15.388H150.647Z" fill="#333333"/>
<path d="M161.453 13.0063H157.663L155.026 29.6785H157.404L157.851 26.6541H161.03L161.477 29.6785H164.091L161.453 13.0063ZM159.429 15.9605L160.677 24.391H158.181L159.429 15.9605Z" fill="#333333"/>
<path d="M164.537 15.388H167.244V29.6772H169.834V15.388H172.542V13.0063H164.537V15.388Z" fill="#333333"/>
<path d="M176.052 16.8406C176.052 15.6498 176.57 15.1972 177.394 15.1972C178.219 15.1972 178.737 15.6495 178.737 16.8406V25.8426C178.737 27.0334 178.219 27.486 177.394 27.486C176.57 27.486 176.052 27.0334 176.052 25.8426V16.8406ZM173.462 25.6759C173.462 28.3431 174.851 29.8673 177.394 29.8673C179.937 29.8673 181.325 28.3431 181.325 25.6759V17.0073C181.325 14.3398 179.936 12.8159 177.394 12.8159C174.851 12.8159 173.462 14.3401 173.462 17.0073V25.6759Z" fill="#333333"/>
<path d="M186.903 13.0063H182.995V29.6785H187.068C189.658 29.6785 191 28.2972 191 25.7251V24.3669C191 22.6046 190.459 21.3424 189.07 20.7944C190.223 20.2467 190.741 19.1513 190.741 17.4365V16.8413C190.741 14.2692 189.587 13.007 186.903 13.007V13.0063ZM186.739 22.1744C187.916 22.1744 188.41 22.6497 188.41 24.1988V25.6514C188.41 26.8898 187.94 27.2949 187.068 27.2949H185.584V22.1754L186.739 22.1744ZM186.833 15.387C187.751 15.387 188.151 15.9109 188.151 17.1017V18.0304C188.151 19.3638 187.563 19.7927 186.597 19.7927H185.585V15.388L186.833 15.387Z" fill="#333333"/>
<path fill-rule="evenodd" clip-rule="evenodd" d="M11.6208 23.4182C11.6208 22.8659 12.0685 22.4182 12.6208 22.4182H19.7411C20.2934 22.4182 20.7411 22.8659 20.7411 23.4182V27.0765H22.973V25.8874C22.973 25.3351 23.4207 24.8874 23.973 24.8874H25.2892V23.3842C25.2892 22.8319 25.7369 22.3842 26.2892 22.3842H26.6389C27.1912 22.3842 27.6389 22.8319 27.6389 23.3842V27.0775H28.8987C29.451 27.0775 29.8987 27.5252 29.8987 28.0775V28.4544C29.8987 29.0067 29.451 29.4544 28.8987 29.4544H20.7411V30.6463C20.7411 31.1986 20.2934 31.6463 19.7411 31.6463H12.6208C12.0685 31.6463 11.6208 31.1986 11.6208 30.6463V23.4182ZM18.4625 24.7251H13.9014V29.3387H18.4625V24.7251Z" fill="white"/>
<path fill-rule="evenodd" clip-rule="evenodd" d="M29.8993 19.2182C29.8993 19.7705 29.4516 20.2182 28.8993 20.2182H21.7773C21.2251 20.2182 20.7773 19.7705 20.7773 19.2182V15.5615H18.5454V16.7506C18.5454 17.3029 18.0977 17.7506 17.5454 17.7506H16.2293V19.2549C16.2293 19.8071 15.7816 20.2549 15.2293 20.2549H14.8795C14.3272 20.2549 13.8795 19.8071 13.8795 19.2549V15.5615H12.6208C12.0685 15.5615 11.6208 15.1138 11.6208 14.5615V14.1846C11.6208 13.6323 12.0685 13.1846 12.6208 13.1846H20.7773V11.9911C20.7773 11.4388 21.2251 10.9911 21.7773 10.9911H28.8993C29.4516 10.9911 29.8993 11.4388 29.8993 11.9911V19.2182ZM23.0573 17.9116H27.6181V13.2977H23.0573V17.9116Z" fill="white"/>
</g>
<defs>
<clipPath id="clip0">
<rect width="191" height="42" fill="white"/>
</clipPath>
</defs>
</svg>
